<?xml version="1.0" standalone="no"?><!DOCTYPE svg PUBLIC "-//W3C//DTD SVG 1.1//EN" "http://www.w3.org/Graphics/SVG/1.1/DTD/svg11.dtd"><svg t="1765593338515" class="icon" viewBox="0 0 1238 1024" version="1.1" xmlns="http://www.w3.org/2000/svg" p-id="64549" xmlns:xlink="http://www.w3.org/1999/xlink" width="241.796875" height="200"><path d="M1100.204651 10.24a119.069767 119.069767 0 0 1 119.069768 119.069767v773.953489a119.069767 119.069767 0 0 1-119.069768 119.069767H135.739535a119.069767 119.069767 0 0 1-119.069768-119.069767V129.309767a119.069767 119.069767 0 0 1 119.069768-119.069767h964.465116z m0 95.255814H135.739535a23.813953 23.813953 0 0 0-23.647256 21.051535L111.925581 129.309767v773.953489a23.813953 23.813953 0 0 0 21.027721 23.647256l2.786233 0.166697h964.465116a23.813953 23.813953 0 0 0 23.647256-21.051535l0.166698-2.762418V129.309767a23.813953 23.813953 0 0 0-21.027721-23.671069l-2.786233-0.142884zM859.993302 349.06493c30.696186 0 55.605581 7.096558 74.704372 21.242047 19.122605 14.169302 28.695814 33.815814 28.695814 58.915721 0 42.436465-21.504 69.060465-64.464372 79.967255v1.047814l6.048744 0.833489c19.789395 3.214884 35.84 11.216372 48.151814 23.956837 13.526326 14.050233 20.289488 31.077209 20.289489 51.2 0 30.815256-11.264 54.891163-33.792 72.180093-22.528 17.312744-52.557395 25.957209-90.112 25.957209-33.339535 0-60.201674-5.501023-80.562605-16.526883v-59.653954l5.477209 3.881675c20.384744 13.597767 43.817674 20.408558 70.274977 20.408558 18.289116 0 32.791814-4.048372 43.531907-12.145117 10.740093-8.096744 16.122047-19.598884 16.122047-34.530232 0-15.36-6.38214-27.076465-19.146419-35.173209-12.764279-8.096744-30.672372-12.145116-53.700465-12.145117h-28.862512v-52.10493h26.576372l5.334326-0.071442c39.983628-1.190698 59.963535-15.812465 59.963535-43.889116 0-27.624186-16.669767-41.436279-50.009302-41.436279-21.789767 0-42.912744 7.120372-63.440373 21.337302v-55.867535l6.191628-3.024372c20.956279-9.573209 45.198884-14.359814 72.727814-14.359814z m-470.944744-1.666977V678.697674h-68.012651V423.554977l-3.786419 3.072c-7.930047 6.02493-18.098605 11.525953-30.529488 16.50307-14.526512 5.786791-27.862326 9.382698-40.007442 10.78772v-57.986976l10.311442-3.167256c33.91107-10.978233 63.559442-26.100093 88.921302-45.389395h43.103256z m214.754233 1.666977c32.386977 0 57.986977 8.263442 76.823814 24.81414 18.813023 16.526884 28.243349 39.293023 28.243348 68.346046 0 16.169674-2.714791 30.791442-8.168186 43.817675a128.762047 128.762047 0 0 1-23.647255 36.74493c-10.311442 11.430698-26.86214 25.195163-49.604465 41.245767-21.908837 15.621953-36.62586 27.695628-44.15107 36.19721-7.549023 8.525395-11.311628 15.907721-11.311628 22.194604h137.501767V678.697674h-215.563907v-24.052093l0.190512-7.144186c0.762047-14.121674 3.810233-27.147907 9.120744-39.126325 6.191628-13.954977 14.764651-26.957395 25.623814-39.054884 10.906791-12.04986 27.790884-26.195349 50.652279-42.388837 20.956279-15.59814 35.60186-29.45786 43.960558-41.531535 8.382512-12.073674 12.549953-24.861767 12.549954-38.388093 0-29.172093-15.883907-43.746233-47.699349-43.746233-27.909953 0-54.557767 11.14493-79.967256 33.482419v-60.273116l6.596465-4.048372c26.647814-15.59814 56.272372-23.385302 88.849861-23.385303z" fill="#2c2c2c" p-id="64550"></path></svg>